<svg viewBox="0 0 1024 1024" xmlns="http://www.w3.org/2000/svg"><path fill="#00A4E8" d="M1024 748.8c0 36.8-28.8 67.2-67.2 67.2H716.8c-96-73.6-192-150.4-240-195.2-96 48-201.6 80-304 80-64 0-121.6-12.8-166.4-41.6C0 643.2 0 627.2 0 611.2V275.2C0 238.4 28.8 208 67.2 208h889.6c38.4 0 67.2 28.8 67.2 67.2v473.6zM268.8 371.2c-83.2 0-150.4 67.2-150.4 150.4s67.2 150.4 150.4 150.4c80 0 144-64 150.4-140.8h-105.6v-38.4H444.8c0-12.8 0-25.6 0-38.4h-131.2v-38.4h105.6c-12.8-64-70.4-112-128-112zm368 246.4c38.4 0 67.2-28.8 67.2-67.2s-28.8-67.2-67.2-67.2-67.2 28.8-67.2 67.2 28.8 67.2 67.2 67.2z"/></svg>
