<svg viewBox="0 0 1024 1024" xmlns="http://www.w3.org/2000/svg"><path fill="#09BB07" d="M1024 611.2c0 208-208 376.8-464 376.8-48 0-96-6.4-137.6-16l-147.2 86.4 38.4-128c-134.4-89.6-224-220.8-224-368 0-256 235.2-464 512-464 262.4 0 480 172.8 496 390.4 4.8 44.8 0 83.2-16 128-32 80-89.6 147.2-160 195.2z"/><path fill="#FFF" d="M384 339.2c-19.2 0-32 12.8-32 32 0 16 12.8 28.8 32 28.8s32-12.8 32-32c0-16-12.8-28.8-32-28.8zm256 0c-19.2 0-32 12.8-32 32 0 16 12.8 28.8 32 28.8s32-12.8 32-32c0-16-16-28.8-32-28.8zm-329.6 249.6l54.4-32-22.4-16c-76.8-51.2-128-128-128-217.6 0-153.6 140.8-281.6 323.2-281.6s323.2 124.8 323.2 281.6-140.8 281.6-323.2 281.6c-32 0-64-3.2-96-12.8l-131.2 76.8z"/></svg>
